<?xml version="1.0" encoding="iso-8859-1"?>
<!-- Generator: Adobe Illustrator 19.0.0, SVG Export Plug-In . SVG Version: 6.00 Build 0)  -->
<svg version="1.1" id="Capa_1" xmlns="http://www.w3.org/2000/svg" xmlns:xlink="http://www.w3.org/1999/xlink" x="0px" y="0px"
	 viewBox="0 0 511.999 511.999" style="enable-background:new 0 0 511.999 511.999;" xml:space="preserve">
<g>
	<g>
		<path d="M432.49,0H285.693L0.001,285.692l226.306,226.307l285.692-285.692V79.509L432.49,0z M481.995,213.879L226.308,469.567
			L42.433,285.692L298.121,30.004h121.941l61.933,61.933V213.879z"/>
	</g>
</g>
<g>
	<g>
		<path d="M429.814,82.188c0,0,0,0-0.001-0.001c-5.667-5.667-13.201-8.788-21.216-8.788c-8.014,0-15.548,3.121-21.217,8.789
			c-11.697,11.699-11.697,30.734,0.001,42.432c5.668,5.667,13.202,8.788,21.216,8.788c8.015,0,15.55-3.121,21.216-8.788
			c5.668-5.667,8.788-13.202,8.788-21.217C438.601,95.389,435.48,87.855,429.814,82.188z"/>
	</g>
</g>
<g>
	<g>
		
			<rect x="138.017" y="298.982" transform="matrix(0.7071 -0.7071 0.7071 0.7071 -164.0201 231.9888)" width="120.016" height="30.004"/>
	</g>
</g>
<g>
	<g>
		
			<rect x="176.051" y="330.813" transform="matrix(0.7071 -0.7071 0.7071 0.7071 -170.9938 278.8136)" width="150.021" height="30.004"/>
	</g>
</g>
<g>
	<g>
		
			<rect x="91.176" y="245.94" transform="matrix(0.7071 -0.7071 0.7071 0.7071 -135.839 193.9394)" width="150.021" height="30.004"/>
	</g>
</g>
<g>
</g>
<g>
</g>
<g>
</g>
<g>
</g>
<g>
</g>
<g>
</g>
<g>
</g>
<g>
</g>
<g>
</g>
<g>
</g>
<g>
</g>
<g>
</g>
<g>
</g>
<g>
</g>
<g>
</g>
</svg>
