<?xml version="1.0" encoding="utf-8"?>
<!-- Generator: Adobe Illustrator 21.1.0, SVG Export Plug-In . SVG Version: 6.00 Build 0)  -->
<svg version="1.1" id="Слой_1" xmlns="http://www.w3.org/2000/svg" xmlns:xlink="http://www.w3.org/1999/xlink" x="0px" y="0px"
	 viewBox="0 0 103.1 99.4" style="enable-background:new 0 0 103.1 99.4;" xml:space="preserve">
<g>
	<g>
		<path d="M88.2,1.4c0,0.3,1.5,2.3,3.4,4.4c1.8,2,3.6,4.3,3.8,5.1c0.3,0.8,0.8,1.1,1.2,0.7c1.2-1-2.1-6.5-5.4-8.8
			C89.6,1.6,88.2,1,88.2,1.4z"/>
		<path d="M80.2,4.7c0,0.6,1.1,1.3,2.5,1.7c3.4,0.9,8.3,6.7,9.1,10.9c0.6,3.6,2.4,4.9,2.4,1.7c-0.1-3.2-3.8-9.9-6.6-11.9
			C83.9,4.5,80.2,3.3,80.2,4.7z"/>
		<path d="M64.7,11.8c-2.7,0.4-6.8,1.5-9.1,2.4c-3.8,1.6-4.2,1.6-8.5-0.3c-7.9-3.6-16.7-2.5-22.2,2.7c-7.1,6.7-8,15.4-3,29.7
			c1.8,5,4.3,15.6,5.7,23.5c3.1,18,5.2,24.7,8.4,26.8c2.3,1.5,2.6,1.5,4.3-0.7c1.6-1.9,1.9-4,1.9-12.5c0-12.7,1.5-21.4,4.3-24.4
			c2.2-2.4,7.4-3,10.7-1.2c3.1,1.7,5,10.2,5.3,24.4c0.3,11.2,0.5,13,2.2,14.2c2.6,1.9,3,1.8,5.4-1.2c2.6-3.3,4.6-10.3,6.6-22.9
			c2.3-14.2,4.1-21.6,7-28.6c3-7.1,3.6-17.9,1.2-22.6c-2-3.7-6.6-7.9-9.7-8.8C70.8,11.1,69.8,11.1,64.7,11.8z M77.7,15.7
			c7.6,4.4,9,15.8,3.6,29.2c-1.9,4.8-4.1,13.4-5.6,22.5c-3,17.3-5,24.8-7.3,27c-3,3-4.2-0.7-4.2-12.7c0-13.8-1.4-20.5-5-24.1
			c-5.6-5.6-14.2-2.9-17,5.2c-0.6,1.9-1.4,9.6-1.7,17.2c-0.6,15.3-1.3,17.5-4.3,14c-2.6-3.1-4.5-10.2-7-25.5
			c-1.1-7.1-3-15.4-4.1-18.5c-1.1-3.1-2.8-8.3-3.6-11.4c-3.8-14.1,3.3-24.8,16.4-24.8c4.2,0,7,0.8,13.2,4c8,4.1,10.5,4.7,11.6,3
			c0.3-0.6-0.4-1-1.7-1c-1.3-0.1-3.4-0.7-4.8-1.5L53.7,17l3-1.2C65,12.6,72.3,12.5,77.7,15.7z"/>
		<path d="M4.2,32.5c0,4.7,2.3,12.6,3.8,13.1c0.7,0.2,0.5-1.4-0.4-4.4c-0.8-2.6-1.4-6.4-1.4-8.6c0-2.1-0.4-3.8-1-3.8
			C4.7,28.8,4.2,30.5,4.2,32.5z"/>
		<path d="M10.2,33.1c0,3.5,2.9,12.7,4,12.7c1.3,0,1.3,0-0.5-5c-0.8-2.3-1.5-5.5-1.5-7.1c0-1.6-0.4-2.9-1-2.9
			C10.7,30.8,10.2,31.8,10.2,33.1z"/>
	</g>
</g>
</svg>
