<?xml version="1.0" encoding="utf-8"?>
<!-- Generator: Adobe Illustrator 21.1.0, SVG Export Plug-In . SVG Version: 6.00 Build 0)  -->
<svg version="1.1" id="Слой_1" xmlns="http://www.w3.org/2000/svg" xmlns:xlink="http://www.w3.org/1999/xlink" x="0px" y="0px"
	 viewBox="0 0 99.4 96.5" style="enable-background:new 0 0 99.4 96.5;" xml:space="preserve">
<g>
	<g>
		<path d="M78.4,5.6c-14,5.8-17,8.3-24,20.2C32.9,62.6,25.9,72.9,14.3,85.1c-3.9,4.1-5.8,5.3-9.1,5.9c-2.4,0.4-4.6,1.1-4.9,1.7
			c-2.5,3.9,11.5,4.1,19.8,0.3c3.7-1.7,7.1-2.5,11-2.5c3.8,0,6.2-0.5,7.2-1.6c1.9-1.8,2.1-5.7,0.5-8.6c-1.8-3.4,0.3-6.2,9.9-12.7
			c11.4-7.8,18.1-14.9,22.6-24c4.8-9.4,7.5-11.1,17.9-11.1c4.4,0,7.7-0.4,7.7-1c0-1.8-14.1-1.1-18.6,0.9c-3.5,1.6-4.7,3.1-8.4,10.2
			c-5,9.6-10.4,15.4-21.1,22.6C39.5,71.5,35.5,76,36.5,78.9c0.3,1.2,0.7,3.7,0.8,5.6l0.1,3.5l-7,0.6c-4.5,0.4-9,1.6-12.5,3.2
			c-5.5,2.7-15.8,3.9-14.5,1.7c0.3-0.6,1.9-1,3.5-1c5.6,0,23.1-21.4,37.3-45.5c3.8-6.6,9-15.5,11.5-19.8
			c7.8-13.1,8.6-13.8,23.2-19.7c11.9-4.8,16.3-7.1,12.8-6.9C91,0.6,85,2.9,78.4,5.6z"/>
		<path d="M81.4,12.2c-5.9,3-9.8,7.8-14.2,17.3c-5.5,11.7-11,19.4-20.7,29c-4.2,4.1-7.6,7.8-7.6,8.2c0,1.8,2.3,0.5,8.8-5.1
			c7.9-6.8,15.4-15.9,20.2-24.5c3.6-6.3,9.3-10.8,16.5-12.8c4.1-1.2,6.2-2.4,5.4-3.2c-0.8-0.8-9.8,1.3-13.9,3.3l-4,1.9l2.2-3.9
			c2-3.5,9.7-9.9,12-9.9c0.4,0,0.8-0.5,0.8-1C86.9,10.1,84.9,10.3,81.4,12.2z"/>
	</g>
</g>
</svg>
