<?xml version="1.0" encoding="utf-8"?>
<!-- Generator: Adobe Illustrator 21.1.0, SVG Export Plug-In . SVG Version: 6.00 Build 0)  -->
<svg version="1.1" id="Слой_1" xmlns="http://www.w3.org/2000/svg" xmlns:xlink="http://www.w3.org/1999/xlink" x="0px" y="0px"
	 viewBox="0 0 92.9 100.7" style="enable-background:new 0 0 92.9 100.7;" xml:space="preserve">
<g>
	<g>
		<path d="M29.8,1.9c-4.7,1-7.5,2.6-12.7,7.4c-3.6,3.3-4.8,3.9-6.1,3c-0.9-0.6-1.6-1.8-1.6-2.7c0.1-1-0.3-1.5-0.9-1.3
			C6.7,8.9,6.7,15,8.5,15c1.1,0,1,0.6-0.6,2.9c-1.2,1.6-2.1,3.7-2.1,4.6c0,2.2,6.6,10,9.6,11.4c1.9,0.8,2.4,1.8,2.4,4.8
			c0,2.1,0.6,5,1.4,6.5c1.3,2.5,1.1,3.1-2.5,9c-4.5,7.3-4.7,8.5-1.6,9c1.6,0.2,2.2,1,2.3,2.8c0,1.4,0.3,3.1,0.8,3.8
			c0.4,0.6,0.4,1.7,0.1,2.2c-0.4,0.6-0.2,1.7,0.5,2.4c0.6,0.8,0.8,2.5,0.5,3.8c-1,3.9,1.3,5.7,8.4,6.5c7.1,0.7,10.1,2.7,10.1,6.8
			c0,1.4,0.5,2.5,1,2.5c1.7,0,1.1-5.6-0.8-8c-1.3-1.6-3.4-2.3-8.5-3c-3.8-0.4-7.2-1.1-7.5-1.5c-0.4-0.4-0.8-2.5-0.9-4.8
			c-0.3-8.7-1.7-14.1-4-15.2c-2.2-1.1-2.1-1.2,1.8-7.2c4-6,4-6.2,2.5-9.2c-0.9-1.6-1.6-4.8-1.6-7.1c0-3.6,0.2-4,2.5-4
			c1.4,0,3.6-0.6,4.8-1.4c1.2-0.8,4.5-1.9,7.2-2.5c6.2-1.5,11.8,0.1,14.8,4c2.3,3.2,3.3,10.8,1.8,13.8c-0.8,1.4-0.8,2.1-0.1,2.1
			c0.6,0,1.3-0.7,1.6-1.5c0.4-1,1.3-1.3,2.5-1c1.3,0.4,3-0.3,5-2c2.5-2,3.4-2.3,4.5-1.4c2.4,2,1,10.2-2.4,14.2
			c-1.5,1.7-1.7,1.6-3.8-1c-1.3-1.6-2.6-2.4-3.1-1.9c-0.4,0.5-0.2,1.1,0.5,1.3c0.6,0.3,1.2,0.9,1.2,1.4c0,1.6,10.4,11.7,13.1,12.8
			c2.3,0.8,2.7,1.7,3.3,7.4c0.6,6.6,2.2,12.5,3.7,14.1c1.7,1.9,1.9-0.2,0.4-3.7c-0.8-2-1.7-6.6-2.1-10.4c-0.6-6.8-0.6-6.8,3.4-12.1
			C93,47.1,87.5,17,67.9,8.3c-2.9-1.3-7.4-2.6-10-3C55.4,5,50,3.9,45.9,2.9C38.1,0.9,35.6,0.8,29.8,1.9z M44.3,4.6
			c3.3,0.8,6.7,1.5,7.5,1.6c8.7,0.4,19,4.8,24.1,10.5c5.8,6.4,8.1,12.3,8.7,22.2c0.4,7.4,0.1,9.7-1.7,14.7c-3,8.1-6.8,13.7-8.8,13
			c-1.1-0.4-1.3-0.2-1,0.9c0.4,0.8,0.3,1.7-0.2,1.9c-1.2,0.8-6.8-3-8.6-5.7c-1.5-2.3-1.5-2.7,0.4-5.8c2.6-4.2,3.6-11,2.2-13.8
			c-1.5-2.7-6.2-2.8-8.6-0.1c-1.5,1.6-1.9,1.7-3.1,0.5c-0.8-0.7-1.4-2.3-1.4-3.5c0-3.1-2.9-8.8-5.4-10.6c-3.6-2.5-9.1-3.5-13.5-2.5
			c-3.9,0.8-4.1,0.8-4.1-1.5c0-1.3-0.4-2.4-1-2.4c-0.5,0-1,1.1-1,2.5c0,1.5-0.9,3.1-2.5,4.1c-3.2,2.1-9.7,2.3-11.9,0.5
			c-1.5-1.3-1.4-1.6,1.4-4c2.3-2,2.9-3.1,2.4-4.9c-0.9-3.2-2.4-2.7-2.4,0.7c0,3.9-3.4,5.2-6.2,2.3c-3.2-3.2-2.1-5,8.2-14
			C27.1,3.1,32.9,1.7,44.3,4.6z"/>
	</g>
</g>
</svg>
