<?xml version="1.0" encoding="utf-8"?>
<!-- Generator: Adobe Illustrator 21.1.0, SVG Export Plug-In . SVG Version: 6.00 Build 0)  -->
<svg version="1.1" id="Слой_1" xmlns="http://www.w3.org/2000/svg" xmlns:xlink="http://www.w3.org/1999/xlink" x="0px" y="0px"
	 viewBox="0 0 104 100.7" style="enable-background:new 0 0 104 100.7;" xml:space="preserve">
<g>
	<g>
		<path d="M49.3,0.7c0,0.5,1.9,1.6,4.1,2.6c10.2,4.8,21.1,15.8,26.8,27.1l3.1,6.1l-1.1,10c-0.7,7.3-1.6,11.1-3.4,14
			c-2.4,4.1-20.5,24.3-23.2,25.9c-0.8,0.4-2.8,0.5-4.4,0.2c-3.3-0.6-4,0.9-0.9,1.9c4.2,1.3,8-0.5,11.7-5.6c1.9-2.7,3.8-4.9,4.3-4.9
			c1.1,0,12.8-13.8,14.6-17.3c1.8-3.4,3.2-10.4,3.5-18.2c0.2-4.4,1-7.2,3-10.5c3-5.1,4.4-9,3.2-9c-0.5,0-1.9,2.2-3.2,5
			c-1.3,2.7-2.7,5-3,5c-0.3,0-2.1-2.8-4-6.3c-1.9-3.4-6.6-9.4-10.5-13.3C61.5,5.1,49.2-2.5,49.3,0.7z"/>
		<path d="M40.7,8.4c-6.4,4.2-12.6,11.5-16.1,18.8C23,30.4,21.5,33,21.2,33c-0.3,0-1.7-2.3-3-5c-1.3-2.8-2.7-5-3.2-5
			c-1.2,0,0.1,3.7,3,8.6c1.6,2.9,2.7,6.9,3.4,13C22.6,55.3,23.2,58,24.5,58c0.6,0,0.7-1.1,0.3-2.7c-0.3-1.5-1.1-6.4-1.6-11L22.3,36
			l3.6-7.2c4.2-8.3,11.6-16.6,17.9-19.9c4.4-2.3,5.8-4,3.3-3.8C46.4,5.1,43.5,6.6,40.7,8.4z"/>
		<path d="M31.3,27.9c0,0.5,2.6,1.1,5.8,1.3c3.1,0.2,6.6,0.8,7.7,1.2c1.7,0.7,1.7,0.5-0.4-1.3c-1.7-1.6-3.7-2.1-7.7-2.1
			C33.7,27,31.3,27.4,31.3,27.9z"/>
		<path d="M59.2,29.1c-2.1,1.8-2.1,2-0.4,1.3c1.1-0.4,4.3-0.9,7-1.2c7.2-0.6,8.1-2.2,1.3-2.2C62.9,27,61,27.5,59.2,29.1z"/>
		<path d="M11.8,38.2C10,43.7,8.4,57.5,8.9,62.9c0.8,6.8,3.8,11.8,16.3,27.1c3.3,4.1,6.1,7.8,6.1,8.2c0,0.5,0.5,0.8,1,0.8
			c1.9,0,1-1.8-3.7-7.6c-2.6-3.2-7.5-9.5-10.9-14.1c-5.7-7.6-6.3-8.9-6.9-14.6c-0.4-4.3-0.1-9.1,1.3-16c1-5.3,1.5-9.7,1-9.7
			S12,37.6,11.8,38.2z"/>
		<path d="M29.3,38c-0.8,0.5-1,1-0.5,1.1c0.6,0.1,1.5,0.2,2,0.4c0.6,0.1,1.5,0.3,2.2,0.3c0.7,0.1,1,0.9,0.6,1.8
			c-0.5,1.2-0.1,1.5,1.3,1.1c1-0.3,4-0.8,6.7-1.2c2.6-0.3,4.7-1,4.7-1.5c0-0.6-1.9-0.7-4.3-0.4c-3,0.4-5.3,0.1-7.5-1
			C30.9,36.7,31.2,36.8,29.3,38z"/>
		<path d="M70.9,38.7c-2,1-4.3,1.3-7.3,0.9c-2.4-0.3-4.3-0.2-4.3,0.4c0,0.5,2.1,1.2,4.8,1.5c2.6,0.4,5.6,0.9,6.6,1.2
			c1.4,0.4,1.7,0.1,1.3-1c-0.6-1.7,1.8-3.1,3.5-2.1c0.6,0.4,0.9,0.1,0.6-0.6C75.5,37,74.1,36.9,70.9,38.7z"/>
		<path d="M92.2,38.5c-0.3,0.3,0,3.6,0.7,7.3c0.7,3.7,1.3,10.1,1.4,14.3v7.7l-5.6,7.8C85.6,80,81,86,78.4,89c-5,5.8-8,10.5-6.3,9.9
			c1.3-0.5,14.8-17.3,20-24.7c3-4.5,3.7-6.3,4-11.9C96.7,53.4,93.9,36.7,92.2,38.5z"/>
		<path d="M48.3,54c0,0.6,1.1,1.6,2.5,2.2c1.9,0.9,3.1,0.8,5-0.2c3.1-1.6,2.3-3.3-0.9-1.9c-1.7,0.8-2.9,0.8-4.5,0
			C49,53.3,48.3,53.3,48.3,54z"/>
		<path d="M46.7,64.1c-1.8,2-1.8,2.1,0.1,3.6c1.4,1,3.6,1.3,7.3,1c6.6-0.5,8.3-1.9,5.7-4.7C57.2,61.1,49.3,61.2,46.7,64.1z
			 M57.8,65.5c0,1.1-6.9,1.9-9.2,1.1c-0.8-0.3-1.1-1.1-0.8-1.6C48.6,63.6,57.8,64.1,57.8,65.5z"/>
		<path d="M48.6,72.5c0.2,0.5,2.3,1,4.7,1s4.5-0.5,4.7-1c0.2-0.6-1.8-1-4.7-1S48.4,71.9,48.6,72.5z"/>
	</g>
</g>
</svg>
