<?xml version="1.0" encoding="UTF-8"?><!DOCTYPE svg PUBLIC "-//W3C//DTD SVG 1.1//EN" "http://www.w3.org/Graphics/SVG/1.1/DTD/svg11.dtd"><svg xmlns="http://www.w3.org/2000/svg"><symbol id="icon-article" viewBox="0 0 512 512">
    <path d="M405.344 133.521l-80.875-76.118H0v341.336l229.633-.016 111.711 55.875-.016-55.859h64.016V133.521zm-74.688-40.978l43.625 41.047h-43.625V92.543zM384 377.41h-64.016l.016 42.656-85.328-42.688-213.336.032V78.738h288.008v76.188H384V377.41z"/>
    <path d="M512 101.371c0-23.57-19.094-42.672-42.656-42.672-23.578 0-42.688 19.102-42.688 42.672v277.32h14.828l-14.828 46.234 42.688 28.453L512 424.926l-14.812-46.234H512V101.371zm-42.656 326.352l-17.438-11.625 11.984-37.406h10.891l11.985 37.406-17.422 11.625zm21.312-70.36H448V101.371c0-11.766 9.562-21.336 21.344-21.336 11.75 0 21.312 9.57 21.312 21.336v255.992z"/>
    <path d="M330.656 281.41H74.664c-5.891 0-10.664 4.766-10.664 10.656 0 5.906 4.773 10.672 10.664 10.672h255.992c5.906 0 10.688-4.766 10.688-10.672 0-5.89-4.782-10.656-10.688-10.656z"/>
    <path d="M330.656 217.402H74.664c-5.891 0-10.664 4.773-10.664 10.672 0 5.891 4.773 10.664 10.664 10.664h255.992c5.906 0 10.688-4.773 10.688-10.664 0-5.898-4.782-10.672-10.688-10.672z"/>
    <path d="M213.336 153.402H74.664c-5.891 0-10.664 4.773-10.664 10.672 0 5.891 4.773 10.664 10.664 10.664h138.672c5.891 0 10.664-4.773 10.664-10.664 0-5.897-4.773-10.672-10.664-10.672z"/>
</symbol><symbol id="icon-before" viewBox="0 0 40.657 40.657">
    <g>
        <path d="M38.991 0H1.668A1.67 1.67 0 0 0 0 1.668v37.321c0 .92.748 1.668 1.668 1.668h37.321a1.67 1.67 0 0 0 1.668-1.668V1.668A1.67 1.67 0 0 0 38.991 0zm-.25 38.739H1.918V1.918h36.823v36.821z"/>
        <path d="M5.425 36.609h29.808a1.67 1.67 0 0 0 1.666-1.668V9.764a1.67 1.67 0 0 0-1.666-1.668H5.425a1.67 1.67 0 0 0-1.667 1.668v25.179c0 .918.748 1.666 1.667 1.666zm29.558-26.596v11.469L33.98 18.56c-.161-.471-.517-.783-.95-.838-.439-.059-.854.161-1.129.588l-4.479 6.991-4.41-14.629c-.1-.33-.262-.534-.43-.659h12.401zm-29.306.001h15.769c-.173.132-.338.35-.427.715l-4.811 19.849-5.296-13.231c-.177-.447-.525-.737-.955-.798a.972.972 0 0 0-.152-.011c-.371 0-.73.186-.983.512l-3.145 4.046V10.014zm-.002 13.899l3.964-5.098 5.739 14.348c.286.717.839.772 1.002.772l.064-.004c.174-.011.756-.108.953-.912l4.7-19.388 4.032 13.382c.227.742.814.854.923.867.213.033.749.035 1.144-.583l4.527-7.065 2.216 6.465a.554.554 0 0 0 .042.088v7.906H5.675V23.913z"/>
        <path d="M14.971 18.625c1.792 0 3.25-1.458 3.25-3.25s-1.458-3.25-3.25-3.25-3.25 1.458-3.25 3.25 1.458 3.25 3.25 3.25zm0-4.75c.827 0 1.5.673 1.5 1.5s-.673 1.5-1.5 1.5-1.5-.673-1.5-1.5.673-1.5 1.5-1.5z"/>
    </g>
</symbol><symbol id="icon-calendar" viewBox="0 0 59 59">
    <path d="M51.179 40.429l-5.596 8.04-3.949-3.241a.999.999 0 1 0-1.268 1.545l4.786 3.929a.998.998 0 0 0 1.455-.201l6.214-8.929a1 1 0 0 0-1.642-1.143z"/>
    <path d="M52 34.479V5a1 1 0 0 0-1-1h-5V1a1 1 0 0 0-1-1h-7a1 1 0 0 0-1 1v3H15V1a1 1 0 0 0-1-1H7a1 1 0 0 0-1 1v3H1a1 1 0 0 0-1 1v51a1 1 0 0 0 1 1h38.104c2.002 1.26 4.362 2 6.896 2 7.168 0 13-5.832 13-13 0-5.003-2.846-9.349-7-11.521zM39 2h5v6h-5V2zM8 2h5v6H8V2zM2 6h4v3a1 1 0 0 0 1 1h7a1 1 0 0 0 1-1V6h22v3a1 1 0 0 0 1 1h7a1 1 0 0 0 1-1V6h4v8H2V6zm0 49V16h48v17.636c-.196-.063-.396-.114-.596-.169-.185-.051-.37-.101-.557-.144a13.038 13.038 0 0 0-1.246-.215c-.137-.017-.273-.036-.411-.049A13.448 13.448 0 0 0 46 33a12.7 12.7 0 0 0-1 .051V21H7v29h26.636c.029.088.065.173.095.26.084.243.167.487.266.724.055.133.12.26.18.39.115.254.232.507.363.753.058.107.123.21.184.316.148.259.298.515.464.763.061.091.128.177.191.267.176.25.356.498.551.736.072.088.15.17.224.256.155.18.303.364.468.536H2zm38.313-20.672c-.108.052-.218.101-.324.156-.188.098-.37.206-.552.313-.159.093-.318.188-.473.287a13.383 13.383 0 0 0-.97.694c-.134.105-.268.209-.397.32-.175.148-.342.305-.509.462-.115.109-.234.214-.345.326-.181.184-.352.379-.522.574-.072.083-.151.159-.222.244V32h7v1.362l-.049.014a12.91 12.91 0 0 0-2.637.952zm-6.743 7.871c-.035.115-.058.233-.09.349-.08.29-.162.58-.222.879-.047.231-.073.467-.107.701-.027.189-.065.375-.085.567a12.183 12.183 0 0 0-.013 2.397c.006.067.006.135.013.202.016.162.048.319.07.479v.001c.011.076.015.151.027.226H27v-7h7v.007c-.01.024-.016.049-.026.073-.15.365-.287.738-.404 1.119zM9 41h7v7H9v-7zm0-9h7v7H9v-7zm34-2h-7v-7h7v7zm-9 0h-7v-7h7v7zm0 9h-7v-7h7v7zm-16-7h7v7h-7v-7zm7-2h-7v-7h7v7zm-9 0H9v-7h7v7zm2 11h7v7h-7v-7zm28 16a10.932 10.932 0 0 1-7.079-2.594c-.108-.092-.21-.19-.314-.286a11.053 11.053 0 0 1-.911-.929 10.849 10.849 0 0 1-.468-.583c-.096-.127-.195-.25-.286-.381a11.15 11.15 0 0 1-.615-.993c-.043-.08-.077-.164-.118-.245a11.14 11.14 0 0 1-.403-.874c-.052-.13-.097-.263-.145-.395-.094-.262-.18-.528-.255-.797l-.048-.186c-.113-.44-.196-.877-.255-1.312l-.014-.094a10.403 10.403 0 0 1-.031-2.459c.003-.031.011-.061.014-.092.038-.341.088-.681.158-1.016.007-.032.018-.063.025-.095.072-.332.157-.662.26-.988.012-.038.029-.075.041-.113a10.902 10.902 0 0 1 .754-1.766l.099-.171c.04-.072.087-.14.129-.211.174-.293.36-.577.557-.851.049-.068.1-.135.151-.202.18-.238.37-.467.568-.688.069-.077.138-.155.209-.23.196-.208.402-.405.613-.596.075-.068.148-.138.225-.204.248-.212.505-.411.77-.6.042-.03.082-.063.124-.093a10.933 10.933 0 0 1 4.412-1.79l.021-.003A10.92 10.92 0 0 1 46 35c.389 0 .776.021 1.16.063.06.006.118.02.178.027.328.041.655.09.978.16.04.009.078.021.117.03.344.079.685.171 1.022.284l.068.025c.345.118.685.253 1.022.406C54.347 37.729 57 41.557 57 46c0 6.065-4.935 11-11 11z"/>
</symbol><symbol id="icon-edit" viewBox="0 0 129 129">
    <path d="M119.2 114.3H9.8c-2.3 0-4.1 1.9-4.1 4.1s1.9 4.1 4.1 4.1h109.5c2.3 0 4.1-1.9 4.1-4.1s-1.9-4.1-4.2-4.1z"/>
    <path d="M5.7 78l-.1 19.5c0 1.1.4 2.2 1.2 3 .8.8 1.8 1.2 2.9 1.2l19.4-.1c1.1 0 2.1-.4 2.9-1.2l67-67c1.6-1.6 1.6-4.2 0-5.9L79.8 8.1c-1.6-1.6-4.2-1.6-5.9 0L60.5 21.6 6.9 75.1c-.7.8-1.2 1.8-1.2 2.9zm71.2-61.1l13.5 13.5-7.6 7.6-13.5-13.5 7.6-7.6zM14 79.8l49.4-49.4 13.5 13.5-49.4 49.3-13.6.1.1-13.5z"/>
</symbol><symbol id="icon-email" viewBox="0 0 452.84 452.84">
    <path d="M449.483 190.4l.001-.001-57.824-38.335V23.93a7.5 7.5 0 0 0-7.5-7.5H68.67a7.5 7.5 0 0 0-7.5 7.5v128.143L3.356 190.399l.001.002A7.49 7.49 0 0 0 0 196.65v232.26a7.5 7.5 0 0 0 7.5 7.5h437.84a7.5 7.5 0 0 0 7.5-7.5V196.65a7.493 7.493 0 0 0-3.357-6.25zM61.17 216.629L37.645 204.15H61.17v12.479zM15 209.118l172.475 91.49L15 414.935V209.118zm211.417 83.671L420.454 421.41H32.381l194.036-128.621zm38.945 7.82l172.477-91.491v205.821l-172.477-114.33zM391.66 204.15h23.536l-23.536 12.484V204.15zm28.794-15H391.66v-19.09l28.794 19.09zM376.66 31.43v193.161l-125.527 66.586-20.573-13.637a7.499 7.499 0 0 0-8.287 0l-20.57 13.635L76.17 224.586V31.43h300.49zM61.17 189.15H32.388l28.782-19.08v19.08z"/>
    <path d="M226.415 213.671h59.754a7.5 7.5 0 0 0 0-15h-59.754c-28.813 0-52.254-23.441-52.254-52.254v-2.213c0-28.813 23.441-52.254 52.254-52.254s52.254 23.441 52.254 52.254v5.533c0 6.237-5.074 11.312-11.312 11.312s-11.312-5.074-11.312-11.312v-10.512c0-17.864-14.533-32.398-32.397-32.398s-32.397 14.533-32.397 32.398c0 17.864 14.533 32.397 32.397 32.397 8.169 0 15.636-3.045 21.34-8.052 4.644 7.483 12.932 12.478 22.369 12.478 14.508 0 26.312-11.803 26.312-26.312v-5.533c0-37.084-30.17-67.254-67.254-67.254s-67.254 30.17-67.254 67.254v2.213c0 37.085 30.17 67.255 67.254 67.255zm-2.767-57.049c-9.593 0-17.397-7.804-17.397-17.397s7.805-17.398 17.397-17.398 17.397 7.805 17.397 17.398-7.804 17.397-17.397 17.397z"/>
</symbol><symbol id="icon-facebook" viewBox="0 0 10 19">
    <title>
        facebook
    </title>
    <path d="M9.766.157v2.946H8.014c-.64 0-1.071.134-1.295.402-.223.268-.335.67-.335 1.205v2.11h3.27l-.435 3.303H6.384v8.471H2.97v-8.47H.123V6.82H2.97V4.387c0-1.384.387-2.457 1.161-3.22C4.904.404 5.934.023 7.222.023c1.093 0 1.941.045 2.544.134z" fill-rule="evenodd"/>
</symbol><symbol id="icon-mail" viewBox="0 0 512 512">
    <path d="M499.161 170.733L341.257 12.828c-17.091-17.091-44.901-17.091-61.992 0L32.839 259.255c-8.545 8.546-12.818 19.771-12.818 30.996 0 11.225 4.273 22.45 12.818 30.996l39.619 39.619-43.503 43.503c-1.953 1.953-2.929 4.512-2.929 7.071s.976 5.118 2.929 7.071c3.905 3.905 10.237 3.906 14.142 0L86.6 375.008l18.119 18.12L2.929 494.919A9.966 9.966 0 0 0 0 501.99c0 2.559.976 5.119 2.929 7.071 3.905 3.905 10.237 3.905 14.143 0L118.863 407.27l71.88 71.881c17.092 17.09 44.901 17.09 61.992 0l246.426-246.427C507.44 224.446 512 213.437 512 201.729c0-11.709-4.56-22.717-12.839-30.996zm-284.688 300.1a23.658 23.658 0 0 1-9.589-5.824L46.981 307.105c-6.231-6.232-8.263-15.079-6.138-23.036h173.63v186.764zm-36.147-206.764l29.653-29.653c3.905-3.905 3.906-10.237 0-14.142-3.906-3.905-10.237-3.906-14.142 0l-43.796 43.795h-29.135l90.406-90.406c3.904-3.905 3.905-10.237 0-14.143-3.905-3.905-10.237-3.905-14.143 0L92.622 264.069H56.31l227.769-227.77v203.935c0 13.143-10.692 23.835-23.835 23.835h-81.918zm306.694-45.486L238.593 465.009a23.792 23.792 0 0 1-4.119 3.276V284.069h25.771c24.17 0 43.835-19.664 43.835-43.835v-25.771h114.624l-57.867 57.868a9.97 9.97 0 0 0-2.929 7.071c0 2.56.976 5.118 2.929 7.071 3.905 3.905 10.237 3.905 14.143 0l72.002-72.002.006-.007h41.328a23.975 23.975 0 0 1-3.296 4.119zm-180.941-24.12V20.833c7.958-2.125 16.805-.093 23.036 6.138l157.904 157.904a23.703 23.703 0 0 1 5.853 9.588H304.079z"/>
    <path d="M235.79 135.05a10.033 10.033 0 0 0-7.07-2.93c-2.64 0-5.21 1.06-7.07 2.93a10.058 10.058 0 0 0-2.93 7.07c0 2.63 1.07 5.21 2.93 7.07 1.86 1.86 4.43 2.93 7.07 2.93 2.63 0 5.21-1.07 7.07-2.93s2.93-4.44 2.93-7.07c0-2.64-1.07-5.21-2.93-7.07z"/>
    <path d="M17.11 430.35c-1.86-1.86-4.44-2.93-7.07-2.93s-5.21 1.07-7.07 2.93c-1.86 1.86-2.93 4.44-2.93 7.07s1.07 5.21 2.93 7.07c1.86 1.86 4.44 2.93 7.07 2.93 2.64 0 5.21-1.07 7.07-2.93 1.87-1.86 2.93-4.44 2.93-7.07s-1.06-5.21-2.93-7.07z"/>
    <path d="M127.018 449.497c-3.906-3.905-10.238-3.905-14.143 0l-45.416 45.416a9.97 9.97 0 0 0-2.929 7.071 9.97 9.97 0 0 0 2.929 7.072c3.906 3.905 10.238 3.905 14.143 0l45.416-45.416c3.904-3.906 3.904-10.238 0-14.143z"/>
</symbol><symbol id="icon-mark" viewBox="0 0 512 512">
    <g>
        <path d="M313.9 376.7c41.3-68.5 93.5-164.8 93.5-214.3C407.4 78.9 339.5 11 256 11S104.6 78.9 104.6 162.4c0 49.5 52.2 145.8 93.5 214.3-49 3.7-160.5 17-160.5 61.1 0 43.4 113.2 63.2 218.5 63.2 105.2 0 218.5-19.8 218.5-63.2-.1-44.1-111.7-57.4-160.7-61.1zM125.5 162.4c0-72 58.6-130.6 130.5-130.6 72 0 130.6 58.6 130.6 130.6 0 62.9-100.2 220.7-130.6 267.1-30.4-46.4-130.5-204.2-130.5-267.1zM256 480.1c-127.9 0-197.6-28-197.6-42.4 0-11.1 46-35 152-41.1 19.9 32.1 35 54.8 37 57.5 2.7 3.6 10.6 7.9 17.3 0 2.1-2.5 17.1-25.4 37-57.5 106 6.1 152 29.9 152 41.1-.1 14.5-69.8 42.4-197.7 42.4z"/>
        <path d="M321.9 162.4c0-36.4-29.5-65.9-65.9-65.9-36.4 0-65.9 29.5-65.9 65.9 0 36.4 29.5 65.9 65.9 65.9 36.4 0 65.9-29.5 65.9-65.9zm-111 0c0-24.9 20.2-45.1 45.1-45.1s45.1 20.2 45.1 45.1c0 24.9-20.2 45.1-45.1 45.1s-45.1-20.2-45.1-45.1z"/>
    </g>
</symbol><symbol id="icon-phone" viewBox="0 0 473.806 473.806">
    <path d="M374.456 293.506c-9.7-10.1-21.4-15.5-33.8-15.5-12.3 0-24.1 5.3-34.2 15.4l-31.6 31.5c-2.6-1.4-5.2-2.7-7.7-4-3.6-1.8-7-3.5-9.9-5.3-29.6-18.8-56.5-43.3-82.3-75-12.5-15.8-20.9-29.1-27-42.6 8.2-7.5 15.8-15.3 23.2-22.8 2.8-2.8 5.6-5.7 8.4-8.5 21-21 21-48.2 0-69.2l-27.3-27.3c-3.1-3.1-6.3-6.3-9.3-9.5-6-6.2-12.3-12.6-18.8-18.6-9.7-9.6-21.3-14.7-33.5-14.7s-24 5.1-34 14.7l-.2.2-34 34.3c-12.8 12.8-20.1 28.4-21.7 46.5-2.4 29.2 6.2 56.4 12.8 74.2 16.2 43.7 40.4 84.2 76.5 127.6 43.8 52.3 96.5 93.6 156.7 122.7 23 10.9 53.7 23.8 88 26 2.1.1 4.3.2 6.3.2 23.1 0 42.5-8.3 57.7-24.8.1-.2.3-.3.4-.5 5.2-6.3 11.2-12 17.5-18.1 4.3-4.1 8.7-8.4 13-12.9 9.9-10.3 15.1-22.3 15.1-34.6 0-12.4-5.3-24.3-15.4-34.3l-54.9-55.1zm35.8 105.3c-.1 0-.1.1 0 0-3.9 4.2-7.9 8-12.2 12.2-6.5 6.2-13.1 12.7-19.3 20-10.1 10.8-22 15.9-37.6 15.9-1.5 0-3.1 0-4.6-.1-29.7-1.9-57.3-13.5-78-23.4-56.6-27.4-106.3-66.3-147.6-115.6-34.1-41.1-56.9-79.1-72-119.9-9.3-24.9-12.7-44.3-11.2-62.6 1-11.7 5.5-21.4 13.8-29.7l34.1-34.1c4.9-4.6 10.1-7.1 15.2-7.1 6.3 0 11.4 3.8 14.6 7l.3.3c6.1 5.7 11.9 11.6 18 17.9 3.1 3.2 6.3 6.4 9.5 9.7l27.3 27.3c10.6 10.6 10.6 20.4 0 31-2.9 2.9-5.7 5.8-8.6 8.6-8.4 8.6-16.4 16.6-25.1 24.4-.2.2-.4.3-.5.5-8.6 8.6-7 17-5.2 22.7l.3.9c7.1 17.2 17.1 33.4 32.3 52.7l.1.1c27.6 34 56.7 60.5 88.8 80.8 4.1 2.6 8.3 4.7 12.3 6.7 3.6 1.8 7 3.5 9.9 5.3.4.2.8.5 1.2.7 3.4 1.7 6.6 2.5 9.9 2.5 8.3 0 13.5-5.2 15.2-6.9l34.2-34.2c3.4-3.4 8.8-7.5 15.1-7.5 6.2 0 11.3 3.9 14.4 7.3l.2.2 55.1 55.1c10.3 10.2 10.3 20.7.1 31.3z"/>
    <path d="M256.056 112.706c26.2 4.4 50 16.8 69 35.8s31.3 42.8 35.8 69c1.1 6.6 6.8 11.2 13.3 11.2.8 0 1.5-.1 2.3-.2 7.4-1.2 12.3-8.2 11.1-15.6-5.4-31.7-20.4-60.6-43.3-83.5s-51.8-37.9-83.5-43.3c-7.4-1.2-14.3 3.7-15.6 11s3.5 14.4 10.9 15.6z"/>
    <path d="M473.256 209.006c-8.9-52.2-33.5-99.7-71.3-137.5s-85.3-62.4-137.5-71.3c-7.3-1.3-14.2 3.7-15.5 11-1.2 7.4 3.7 14.3 11.1 15.6 46.6 7.9 89.1 30 122.9 63.7 33.8 33.8 55.8 76.3 63.7 122.9 1.1 6.6 6.8 11.2 13.3 11.2.8 0 1.5-.1 2.3-.2 7.3-1.1 12.3-8.1 11-15.4z"/>
</symbol><symbol id="icon-price" viewBox="0 0 511.999 511.999">
    <path d="M432.49 0H285.693L.001 285.692l226.306 226.307 285.692-285.692V79.509L432.49 0zm49.505 213.879L226.308 469.567 42.433 285.692 298.121 30.004h121.941l61.933 61.933v121.942z"/>
    <path d="M429.814 82.188l-.001-.001c-5.667-5.667-13.201-8.788-21.216-8.788-8.014 0-15.548 3.121-21.217 8.789-11.697 11.699-11.697 30.734.001 42.432 5.668 5.667 13.202 8.788 21.216 8.788 8.015 0 15.55-3.121 21.216-8.788 5.668-5.667 8.788-13.202 8.788-21.217 0-8.014-3.121-15.548-8.787-21.215z"/>
    <path d="M144.982 345.807l84.863-84.863 21.216 21.216-84.863 84.863z"/>
    <path d="M187.41 388.246l106.08-106.08 21.215 21.216-106.08 106.08z"/>
    <path d="M102.536 303.373l106.08-106.08 21.215 21.216-106.08 106.08z"/>
</symbol><symbol id="icon-quote" viewBox="0 0 16 16">
    <path d="M9 9V2h7v7.1c0 4.8-4.5 5.4-4.5 5.4l-.6-1.4s2-.3 2.4-1.9c.4-1.2-.4-2.2-.4-2.2H9z"/>
    <path d="M0 9V2h7v7.1c0 4.8-4.5 5.4-4.5 5.4l-.6-1.4s2-.3 2.4-1.9C4.7 10 3.9 9 3.9 9H0z"/>
</symbol><symbol id="icon-review" viewBox="0 0 381.407 381.407">
    <path d="M373.323 246.354a6.966 6.966 0 0 0-3.203-1.721l-65.6-15-8-13.12 68.44-78.68a6.959 6.959 0 0 0-3.48-11.56l-110.6-25.6-58.52-97.2a6.92 6.92 0 0 0-12 0l-58.48 97.2-110.6 25.6a6.92 6.92 0 0 0-3.68 11.28l74.4 85.76-9.8 113.16a6.92 6.92 0 0 0 9.6 7l104.56-44.36 8.24 3.52 3.52 4-5.8 66.92a6.92 6.92 0 0 0 9.6 7l62.04-25.92 61.24 25.96a6.96 6.96 0 0 0 10.2-6.72l-5.8-67.24 44-50.44a6.959 6.959 0 0 0-.277-9.839zM87.04 326.194l9.08-104.56a6.958 6.958 0 0 0-2.04-5.56l-68.44-78.84 102.24-23.68a6.922 6.922 0 0 0 4.56-3.44l53.92-89.68 54.12 89.92a6.918 6.918 0 0 0 4.4 3.2l102.24 23.68-58 66.8-19.16-32a6.92 6.92 0 0 0-12 0l-34.56 57.6-65.4 15.12a6.92 6.92 0 0 0-3.68 11.28l26.4 30.4-93.68 39.76zm230.2-26.16a6.918 6.918 0 0 0-1.68 5.12l5.08 58.36-54.04-22.96a6.92 6.92 0 0 0-5.36 0l-53.92 22.84 5.08-58.32a6.958 6.958 0 0 0-2.04-5.56l-38.04-44 57.04-12.88a6.922 6.922 0 0 0 4.56-3.44l30.04-49.92 30.16 50.16a6.921 6.921 0 0 0 4.48 3.2l57.04 13.2-38.4 44.2z"/>
</symbol><symbol id="icon-telegram" viewBox="0 0 512 512">
    <circle cx="256" cy="256" r="256"/>
    <path d="M34.133 256C34.133 120.352 139.641 9.364 273.066.579A259.94 259.94 0 0 0 256 0C114.615 0 0 114.615 0 256s114.615 256 256 256c5.737 0 11.424-.208 17.067-.579C139.642 502.636 34.133 391.648 34.133 256z"/>
    <path d="M380.263 109.054a8.535 8.535 0 0 0-8.399-.679L96.777 236.433a13.472 13.472 0 0 0-7.766 12.501c.117 5.226 3.28 9.92 8.065 12.015l253.613 110.457c8.468 3.849 18.439-2.21 18.983-11.453l14.314-243.341a8.536 8.536 0 0 0-3.723-7.558z"/>
    <path d="M171.631 293.421L188.772 408l190.396-299.568z"/>
    <path d="M371.866 108.375L96.777 236.433c-4.737 2.205-7.826 7.121-7.769 12.345.058 5.233 3.276 10.074 8.067 12.171l74.557 32.471 207.536-184.988a8.525 8.525 0 0 0-7.302-.057z"/>
    <path d="M211.418 310.749L188.772 408l190.396-299.568z"/>
    <path d="M380.263 109.054a8.382 8.382 0 0 0-1.095-.622l-167.75 202.317 139.27 60.657c8.468 3.849 18.439-2.21 18.983-11.453l14.314-243.341a8.533 8.533 0 0 0-3.722-7.558z"/>
</symbol><symbol id="icon-viber" viewBox="0 0 512 512">
    <path d="M307.207 0H204.794C105.969 0 25.571 80.398 25.571 179.223v76.81c0 69.381 40.014 132.344 102.413 161.961v85.537c0 7.427 9.291 11.31 14.569 6.035l74.309-74.31h90.344c98.824 0 179.223-80.398 179.223-179.223v-76.81C486.429 80.398 406.03 0 307.207 0z"/>
    <path d="M153.587 417.993c-62.399-29.618-102.413-92.58-102.413-161.961v-76.81C51.174 80.398 131.573 0 230.397 0h-25.603C105.969 0 25.571 80.398 25.571 179.223v76.81c0 69.381 40.014 132.344 102.413 161.961v85.537c0 7.427 9.291 11.31 14.569 6.035l11.034-11.034v-80.539z"/>
    <path d="M384.85 318.101l-7.673-41.566a8.536 8.536 0 0 0-6.719-6.82l-60.347-12.069a8.54 8.54 0 0 0-7.71 2.334l-24.517 24.518c-41.308-18.509-64.234-41.485-84.406-84.566l24.438-24.437a8.541 8.541 0 0 0 2.334-7.71l-12.069-60.348a8.536 8.536 0 0 0-6.82-6.719l-41.566-7.672a8.554 8.554 0 0 0-3.44.07 59.554 59.554 0 0 0-28.96 15.996c-13.802 13.802-19.077 33.942-15.253 58.243 6.419 40.806 26.411 97.594 63.296 134.627l.504.5c37.004 36.859 93.793 56.853 134.601 63.273 5.141.81 10.092 1.211 14.84 1.211 17.695 0 32.52-5.582 43.405-16.465a59.57 59.57 0 0 0 15.995-28.959 8.613 8.613 0 0 0 .067-3.441z"/>
    <g>
        <path d="M209.571 183.839l8.344-8.345.009-.009-8.354 8.353z"/>
        <path d="M293.976 268.397l8.425-8.426.002.001-8.426 8.426z"/>
        <path d="M341.473 350.871c-4.748 0-9.699-.401-14.84-1.211-40.807-6.42-97.596-26.414-134.601-63.273l-.504-.5c-36.885-37.033-56.877-93.821-63.296-134.627-3.089-19.633-.233-36.548 8.256-49.601a59.76 59.76 0 0 0-9.097 7.452c-13.802 13.802-19.077 33.942-15.253 58.243 6.419 40.806 26.411 97.594 63.296 134.627l.504.5c37.004 36.859 93.793 56.853 134.601 63.273 5.141.81 10.092 1.211 14.84 1.211 17.695 0 32.52-5.581 43.405-16.465a59.805 59.805 0 0 0 7.451-9.096c-9.637 6.268-21.377 9.467-34.762 9.467z"/>
    </g>
    <g>
        <path d="M273.069 145.085a8.534 8.534 0 0 0 0 17.068c18.824 0 34.138 15.314 34.138 34.138 0 4.65 3.884 8.534 8.534 8.534s8.534-3.884 8.534-8.534c.001-28.236-22.97-51.206-51.206-51.206z"/>
        <path d="M273.069 110.947c-3.157 0-6.343.175-9.471.52-4.685.517-8.064 4.734-7.547 9.42s4.743 8.056 9.42 7.547a69.48 69.48 0 0 1 7.598-.418c37.647 0 68.275 30.628 68.275 68.275 0 2.535-.141 5.091-.418 7.599-.51 4.621 2.924 8.911 7.547 9.42 4.622.509 8.909-2.924 9.42-7.547.345-3.128.52-6.314.52-9.472 0-47.058-38.285-85.344-85.344-85.344z"/>
        <path d="M273.069 76.81c-3.05 0-6.139.116-9.179.347a8.536 8.536 0 0 0-7.866 9.155c.355 4.7 4.469 8.222 9.155 7.866 2.613-.199 5.268-.299 7.89-.299 56.471 0 102.413 45.942 102.413 102.413 0 7.99-.922 15.944-2.74 23.64-1.043 4.41 1.673 8.994 6.046 10.192 4.601 1.26 9.469-1.625 10.565-6.266a120.027 120.027 0 0 0 3.198-27.566c0-65.883-53.599-119.482-119.482-119.482z"/>
    </g>
</symbol></svg>